<?xml version="1.0" encoding="UTF-8" standalone="no"?>
<!-- Generator: Adobe Illustrator 16.0.0, SVG Export Plug-In . SVG Version: 6.00 Build 0)  -->

<svg
   xmlns:dc="http://purl.org/dc/elements/1.1/"
   xmlns:cc="http://creativecommons.org/ns#"
   xmlns:rdf="http://www.w3.org/1999/02/22-rdf-syntax-ns#"
   xmlns:svg="http://www.w3.org/2000/svg"
   xmlns="http://www.w3.org/2000/svg"
   xmlns:sodipodi="http://sodipodi.sourceforge.net/DTD/sodipodi-0.dtd"
   xmlns:inkscape="http://www.inkscape.org/namespaces/inkscape"
   version="1.1"
   id="Layer_1"
   x="0px"
   y="0px"
   width="411.99899"
   height="285.71603"
   viewBox="0 0 411.99899 285.71603"
   enable-background="new 0 0 512 512"
   xml:space="preserve"
   inkscape:version="0.91 r13725"
   sodipodi:docname="twitter.svg"><metadata
     id="metadata16"><rdf:RDF><cc:Work
         rdf:about=""><dc:format>image/svg+xml</dc:format><dc:type
           rdf:resource="http://purl.org/dc/dcmitype/StillImage" /><dc:title></dc:title></cc:Work></rdf:RDF></metadata><defs
     id="defs14" /><sodipodi:namedview
     pagecolor="#ffffff"
     bordercolor="#666666"
     borderopacity="1"
     objecttolerance="10"
     gridtolerance="10"
     guidetolerance="10"
     inkscape:pageopacity="0"
     inkscape:pageshadow="2"
     inkscape:window-width="847"
     inkscape:window-height="480"
     id="namedview12"
     showgrid="false"
     inkscape:zoom="0.4609375"
     inkscape:cx="206"
     inkscape:cy="142.85803"
     inkscape:window-x="10"
     inkscape:window-y="34"
     inkscape:window-maximized="0"
     inkscape:current-layer="Layer_1"
     fit-margin-top="0"
     fit-margin-left="0"
     fit-margin-right="0"
     fit-margin-bottom="0" /><text
     id="text3"
     x="118.7834"
     y="430.6673"><tspan
       x="118.7834"
       y="430.6673"
       font-size="20"
       id="tspan5"
       style="font-size:20px;font-family:Verdana-Bold;fill:#ffff00">simpleicon.com</tspan><tspan
       x="-40.806595"
       y="454.6673"
       font-size="20"
       id="tspan7"
       style="font-size:20px;font-family:Verdana;fill:#ffff00">Collection Of Flat Icon, Symbols And Glyph Icons</tspan></text>
<g
     id="_x23_020201ff"
     style="fill:#ffffff"
     transform="translate(-50,-113.142)"><path
       d="m 307.875,126.404 c 8.923,-6.734 19.259,-11.948 30.478,-13.262 -1.549,6.708 -7.915,10.219 -13.461,13.271 8.374,-2.476 16.54,-6.131 25.363,-6.735 2.359,-0.081 5.718,0.018 6.555,2.755 1.261,3.413 -2.188,6.06 -4.808,7.482 -9.634,4.97 -20.762,5.699 -30.559,10.291 20.132,-1.891 40.229,5.916 55.499,18.8 18.224,15 30.271,36.717 34.664,59.812 16.107,4.322 33.521,1.189 48.638,-5.231 -7.599,17.215 -26.957,25.075 -44.641,26.606 14.694,5.546 30.865,6.491 46.396,4.843 -12.316,13.642 -31.369,18.954 -49.276,18.539 -7.447,30.433 -25.157,57.732 -48.134,78.773 -44.713,40.481 -106.641,59.883 -166.479,56.03 C 140.587,394.867 83.98,366.514 50,319.469 c 2.971,1.738 5.465,4.133 8.301,6.061 26.309,19.034 61.333,25.083 92.612,16.584 18.98,-4.897 36.212,-15.514 49.979,-29.379 -8.805,0.595 -18.583,-0.973 -24.967,-7.608 -3.979,-3.79 -5.618,-10.029 -3.223,-15.107 2.89,-6.411 9.328,-10.057 15.415,-12.93 -19.961,2.854 -41.714,-6.446 -50.916,-24.904 6.743,-8.041 17.521,-10.624 27.534,-11.407 -11.651,-3.395 -23.617,-7.554 -32.45,-16.252 -7.023,-6.582 -11.588,-15.711 -12.957,-25.219 8.248,-1.54 16.531,-3.413 24.985,-3.061 -19.168,-9.977 -36.69,-28.974 -35.159,-51.942 36.348,13.262 72.111,28.379 106.261,46.639 11.949,6.564 21.88,16.063 31.649,25.436 9.462,-24.571 19.618,-49.241 35.006,-70.796 8.247,-11.336 17.98,-21.888 29.938,-29.361 -0.469,3.716 -2.377,6.958 -4.133,10.181 z"
       id="path10"
       style="fill:#ffffff"
       inkscape:connector-curvature="0" /></g></svg>